<?xml version="1.0" encoding="UTF-8" standalone="no"?>
<!-- Created with Inkscape (http://www.inkscape.org/) -->

<svg
   xmlns:dc="http://purl.org/dc/elements/1.1/"
   xmlns:cc="http://creativecommons.org/ns#"
   xmlns:rdf="http://www.w3.org/1999/02/22-rdf-syntax-ns#"
   xmlns:svg="http://www.w3.org/2000/svg"
   xmlns="http://www.w3.org/2000/svg"
   xmlns:sodipodi="http://sodipodi.sourceforge.net/DTD/sodipodi-0.dtd"
   xmlns:inkscape="http://www.inkscape.org/namespaces/inkscape"
   inkscape:export-ydpi="9.2288532"
   inkscape:export-xdpi="9.2288532"
   inkscape:export-filename="D:\Ovidiu\VSDebugPro\vsdebugtool\Resources\vsdpro_small.png"
   sodipodi:docname="vsd-logo4.svg"
   inkscape:version="0.92.1 r15371"
   version="1.1"
   id="svg2"
   height="426.48853"
   width="504.1571"
   viewBox="0 0 472.64728 399.833">
  <defs
     id="defs4">
    <filter
       style="color-interpolation-filters:sRGB"
       inkscape:label="Cross Noise B"
       id="filter5842"
       inkscape:menu-tooltip="Adds a small scale crossy graininess"
       inkscape:menu="Overlays">
      <feGaussianBlur
         stdDeviation="1.4"
         result="blur"
         id="feGaussianBlur5844" />
      <feComponentTransfer
         in="blur"
         result="fbSourceGraphic"
         id="feComponentTransfer5846">
        <feFuncR
           type="table"
           tableValues="0 1 0 1 0 1 0 1 0"
           id="feFuncR5848" />
        <feFuncG
           type="table"
           tableValues="0 1 0 1 0 1 0 1 0"
           id="feFuncG5850" />
        <feFuncB
           type="table"
           tableValues="0 1 0 1 0 1 0 1 0"
           id="feFuncB5852" />
      </feComponentTransfer>
      <feColorMatrix
         result="fbSourceGraphicAlpha"
         in="fbSourceGraphic"
         values="0 0 0 -1 0 0 0 0 -1 0 0 0 0 -1 0 0 0 0 1 0"
         id="feColorMatrix8476" />
      <feColorMatrix
         id="feColorMatrix8478"
         result="result6"
         values="1 0 0 0 0 0 1 0 0 0 0 0 1 0 0 0 0 0 1 1 "
         in="fbSourceGraphic" />
      <feTurbulence
         id="feTurbulence8480"
         result="result0"
         seed="0"
         baseFrequency="1"
         numOctaves="5"
         type="fractalNoise" />
      <feConvolveMatrix
         id="feConvolveMatrix8482"
         result="result5"
         order="5 5"
         kernelMatrix="-2 0 0 0 -2 0 -2 0 -2 0 0 0 -10 0 0 0 -2 0 -2 0 -2 0 0 0 -2 "
         targetX="2"
         targetY="2" />
      <feColorMatrix
         id="feColorMatrix8484"
         in="result5"
         type="saturate"
         values="0"
         result="result4" />
      <feComposite
         id="feComposite8486"
         in2="result6"
         result="result2"
         k3="0.5"
         k2="0.5"
         k1="1.5"
         operator="arithmetic"
         in="result4"
         k4="0" />
      <feBlend
         id="feBlend8488"
         in2="result4"
         result="result7"
         mode="normal" />
      <feComposite
         id="feComposite8490"
         in2="fbSourceGraphic"
         result="result3"
         operator="in"
         in="result7" />
    </filter>
    <filter
       style="color-interpolation-filters:sRGB"
       inkscape:label="Cross Noise B"
       id="filter5926"
       inkscape:menu-tooltip="Adds a small scale crossy graininess"
       inkscape:menu="Overlays">
      <feGaussianBlur
         stdDeviation="1.1"
         result="blur"
         id="feGaussianBlur5928" />
      <feComponentTransfer
         in="blur"
         result="fbSourceGraphic"
         id="feComponentTransfer5930">
        <feFuncR
           type="table"
           tableValues="0 1 0 1 0 1 0 1 0"
           id="feFuncR5932" />
        <feFuncG
           type="table"
           tableValues="0 1 0 1 0 1 0 1 0"
           id="feFuncG5934" />
        <feFuncB
           type="table"
           tableValues="0 1 0 1 0 1 0 1 0"
           id="feFuncB5936" />
      </feComponentTransfer>
      <feColorMatrix
         result="fbSourceGraphicAlpha"
         in="fbSourceGraphic"
         values="0 0 0 -1 0 0 0 0 -1 0 0 0 0 -1 0 0 0 0 1 0"
         id="feColorMatrix8434" />
      <feColorMatrix
         id="feColorMatrix8436"
         result="result6"
         values="1 0 0 0 0 0 1 0 0 0 0 0 1 0 0 0 0 0 1 1 "
         in="fbSourceGraphic" />
      <feTurbulence
         id="feTurbulence8438"
         result="result0"
         seed="0"
         baseFrequency="1"
         numOctaves="5"
         type="fractalNoise" />
      <feConvolveMatrix
         id="feConvolveMatrix8440"
         result="result5"
         order="5 5"
         kernelMatrix="-2 0 0 0 -2 0 -2 0 -2 0 0 0 -10 0 0 0 -2 0 -2 0 -2 0 0 0 -2 "
         targetX="2"
         targetY="2" />
      <feColorMatrix
         id="feColorMatrix8442"
         in="result5"
         type="saturate"
         values="0"
         result="result4" />
      <feComposite
         id="feComposite8444"
         in2="result6"
         result="result2"
         k3="0.5"
         k2="0.5"
         k1="1.5"
         operator="arithmetic"
         in="result4"
         k4="0" />
      <feBlend
         id="feBlend8446"
         in2="result4"
         result="result7"
         mode="normal" />
      <feComposite
         id="feComposite8448"
         in2="fbSourceGraphic"
         result="result3"
         operator="in"
         in="result7" />
    </filter>
    <filter
       style="color-interpolation-filters:sRGB"
       inkscape:label="Blur"
       id="filter9016">
      <feGaussianBlur
         stdDeviation="0.3 0.3"
         result="blur"
         id="feGaussianBlur9018" />
    </filter>
    <filter
       style="color-interpolation-filters:sRGB"
       inkscape:label="Black Hole"
       id="filter5974-0"
       inkscape:menu="Morphology"
       inkscape:menu-tooltip="Creates a black light inside and outside"
       height="1.5"
       width="1.5"
       y="-0.25"
       x="-0.25">
      <feGaussianBlur
         stdDeviation="1.1"
         result="blur"
         id="feGaussianBlur5976-3" />
      <feComponentTransfer
         in="blur"
         result="fbSourceGraphic"
         id="feComponentTransfer5978-1">
        <feFuncR
           type="table"
           tableValues="0 1 0 1 0 1 0 1 0"
           id="feFuncR5980-7" />
        <feFuncG
           type="table"
           tableValues="0 1 0 1 0 1 0 1 0"
           id="feFuncG5982-7" />
        <feFuncB
           type="table"
           tableValues="0 1 0 1 0 1 0 1 0"
           id="feFuncB5984-7" />
      </feComponentTransfer>
      <feColorMatrix
         result="fbSourceGraphicAlpha"
         in="fbSourceGraphic"
         values="0 0 0 -1 0 0 0 0 -1 0 0 0 0 -1 0 0 0 0 1 0"
         id="feColorMatrix8492-6" />
      <feGaussianBlur
         id="feGaussianBlur8494-2"
         stdDeviation="5"
         in="fbSourceGraphicAlpha"
         result="result1" />
      <feComposite
         k3="0"
         id="feComposite8496-5"
         in2="result1"
         operator="arithmetic"
         k2="3.2"
         k1="-1"
         k4="-2"
         result="result3" />
      <feColorMatrix
         id="feColorMatrix8498-6"
         values="1 0 0 0 0 0 1 0 0 0 0 0 1 0 0 0 0 0 10 0 "
         result="result2" />
      <feComposite
         id="feComposite8500-3"
         in2="result2"
         result="fbSourceGraphic"
         in="fbSourceGraphic"
         operator="out" />
      <feBlend
         id="feBlend8502-1"
         in2="fbSourceGraphic"
         mode="multiply"
         in="result1"
         result="result91" />
      <feBlend
         id="feBlend8504-9"
         in2="result91"
         mode="screen"
         in="fbSourceGraphic" />
    </filter>
    <filter
       style="color-interpolation-filters:sRGB"
       inkscape:label="Cross Blur"
       id="filter5568">
      <feColorMatrix
         in="SourceGraphic"
         values="1 0 0 0 0 0 1 0 0 0 0 0 1 0 0 -0.2125 -0.7154 -0.0721 1 0 "
         result="colormatrix"
         id="feColorMatrix5570" />
      <feComposite
         in="SourceGraphic"
         in2="colormatrix"
         operator="arithmetic"
         k2="1"
         k3="0"
         k4="2.77556e-017"
         result="composite"
         id="feComposite5572"
         k1="0" />
      <feGaussianBlur
         stdDeviation="0.4 0.01"
         result="blur1"
         id="feGaussianBlur5574" />
      <feGaussianBlur
         in="composite"
         stdDeviation="0.01 0.4"
         result="blur2"
         id="feGaussianBlur5576" />
      <feBlend
         in="blur2"
         in2="blur1"
         mode="darken"
         result="fbSourceGraphic"
         id="feBlend5578" />
      <feColorMatrix
         result="fbSourceGraphicAlpha"
         in="fbSourceGraphic"
         values="0 0 0 -1 0 0 0 0 -1 0 0 0 0 -1 0 0 0 0 1 0"
         id="feColorMatrix5580" />
      <feColorMatrix
         id="feColorMatrix5582"
         in="fbSourceGraphic"
         values="1 0 0 0 0 0 1 0 0 0 0 0 1 0 0 -0.2125 -0.7154 -0.0721 1 0 "
         result="colormatrix" />
      <feComposite
         id="feComposite5584"
         in2="colormatrix"
         in="fbSourceGraphic"
         operator="arithmetic"
         k2="1"
         k3="0"
         k4="2.77556e-017"
         result="composite"
         k1="0" />
      <feGaussianBlur
         id="feGaussianBlur5586"
         stdDeviation="0.4 0.01"
         result="blur1" />
      <feGaussianBlur
         id="feGaussianBlur5588"
         in="composite"
         stdDeviation="0.01 0.4"
         result="blur2" />
      <feBlend
         id="feBlend5590"
         in2="blur1"
         in="blur2"
         mode="darken"
         result="blend" />
    </filter>
    <filter
       style="color-interpolation-filters:sRGB"
       inkscape:label="Cross Noise B"
       id="filter5119"
       inkscape:menu-tooltip="Adds a small scale crossy graininess"
       inkscape:menu="Overlays">
      <feGaussianBlur
         stdDeviation="1 1"
         result="fbSourceGraphic"
         id="feGaussianBlur5121" />
      <feColorMatrix
         result="fbSourceGraphicAlpha"
         in="fbSourceGraphic"
         values="0 0 0 -1 0 0 0 0 -1 0 0 0 0 -1 0 0 0 0 1 0"
         id="feColorMatrix6901" />
      <feColorMatrix
         id="feColorMatrix6903"
         result="result6"
         values="1 0 0 0 0 0 1 0 0 0 0 0 1 0 0 0 0 0 1 1 "
         in="fbSourceGraphic" />
      <feTurbulence
         id="feTurbulence6905"
         result="result0"
         seed="0"
         baseFrequency="1"
         numOctaves="5"
         type="fractalNoise" />
      <feConvolveMatrix
         id="feConvolveMatrix6907"
         result="result5"
         order="5 5"
         kernelMatrix="-2 0 0 0 -2 0 -2 0 -2 0 0 0 -10 0 0 0 -2 0 -2 0 -2 0 0 0 -2 "
         targetX="2"
         targetY="2" />
      <feColorMatrix
         id="feColorMatrix6909"
         in="result5"
         type="saturate"
         values="0"
         result="result4" />
      <feComposite
         in2="result6"
         id="feComposite6911"
         result="result2"
         k3="0.5"
         k2="0.5"
         k1="1.5"
         operator="arithmetic"
         in="result4"
         k4="0" />
      <feBlend
         in2="result4"
         id="feBlend6913"
         result="result7"
         mode="normal" />
      <feComposite
         in2="fbSourceGraphic"
         id="feComposite6915"
         result="result3"
         operator="in"
         in="result7" />
    </filter>
    <filter
       style="color-interpolation-filters:sRGB"
       inkscape:label="Drop Shadow"
       id="filter5731">
      <feFlood
         flood-opacity="0.70000000000000007"
         flood-color="rgb(0,0,0)"
         result="flood"
         id="feFlood5733" />
      <feComposite
         in="SourceGraphic"
         in2="flood"
         operator="in"
         result="composite1"
         id="feComposite5735" />
      <feGaussianBlur
         in="composite1"
         stdDeviation="4.5"
         result="blur"
         id="feGaussianBlur5737" />
      <feOffset
         dx="-6.38378e-016"
         dy="-6.38378e-016"
         result="offset"
         id="feOffset5739" />
      <feComposite
         in="SourceGraphic"
         in2="offset"
         operator="over"
         result="composite2"
         id="feComposite5741" />
    </filter>
    <filter
       inkscape:label="Soft Focus Lens"
       inkscape:menu="Image Effects"
       inkscape:menu-tooltip="Glowing image content without blurring it"
       style="color-interpolation-filters:sRGB"
       id="filter5824">
      <feGaussianBlur
         stdDeviation="5"
         result="result3"
         id="feGaussianBlur5810" />
      <feColorMatrix
         values="1 0 0 0 0 0 1 0 0 0 0 0 1 0 0 0 0 0 50 0 "
         result="result7"
         id="feColorMatrix5812" />
      <feComposite
         operator="in"
         in2="SourceGraphic"
         result="result9"
         id="feComposite5814" />
      <feComposite
         in2="result7"
         operator="arithmetic"
         in="result9"
         k1="0.5"
         k3="0.5"
         result="result1"
         id="feComposite5816"
         k2="0"
         k4="0" />
      <feBlend
         in2="result1"
         result="result5"
         mode="screen"
         in="SourceGraphic"
         id="feBlend5818" />
      <feBlend
         in2="result5"
         mode="darken"
         in="result5"
         result="result6"
         id="feBlend5820" />
      <feComposite
         in2="SourceGraphic"
         operator="in"
         result="result8"
         id="feComposite5822" />
    </filter>
  </defs>
  <sodipodi:namedview
     inkscape:window-maximized="1"
     inkscape:window-y="-11"
     inkscape:window-x="-11"
     inkscape:window-height="1706"
     inkscape:window-width="2880"
     inkscape:snap-bbox="false"
     showgrid="false"
     inkscape:current-layer="layer1"
     inkscape:document-units="px"
     inkscape:cy="225.92045"
     inkscape:cx="121.19614"
     inkscape:zoom="1.4"
     inkscape:pageshadow="2"
     inkscape:pageopacity="0.0"
     borderopacity="1.0"
     bordercolor="#666666"
     pagecolor="#ffffff"
     id="base"
     inkscape:object-paths="false"
     inkscape:snap-object-midpoints="true"
     inkscape:snap-smooth-nodes="false"
     inkscape:snap-midpoints="false"
     inkscape:snap-others="true"
     inkscape:snap-nodes="true"
     inkscape:snap-center="false"
     showborder="true"
     inkscape:snap-path-clip="false"
     width="504.1571px"
     fit-margin-top="0"
     fit-margin-left="0"
     fit-margin-right="0"
     fit-margin-bottom="0" />
  <metadata
     id="metadata7">
    <rdf:RDF>
      <cc:Work
         rdf:about="">
        <dc:format>image/svg+xml</dc:format>
        <dc:type
           rdf:resource="http://purl.org/dc/dcmitype/StillImage" />
        <dc:title />
      </cc:Work>
    </rdf:RDF>
  </metadata>
  <g
     inkscape:label="Layer 1"
     inkscape:groupmode="layer"
     id="layer1"
     transform="translate(-153.18803,-298.84345)">
    <g
       id="g3063"
       transform="matrix(1.25,0,0,1.25,235.98214,337.71933)"
       inkscape:export-xdpi="90"
       inkscape:export-ydpi="90">
      <path
         id="path3047"
         d="m 184.31,71.05 c 4.17931,-1.77696 9.52583,-0.850833 12.83,2.8 2.82866,3.12544 3.3738,7.458399 2.2,11.08 -1.31957,4.071367 -5.68158,6.750433 -10.34,6.74 -4.36862,-0.0098 -8.21,-2.338525 -9.95,-5.97 -2.52195,-5.263456 -0.26752,-12.299805 5.26,-14.65 z"
         inkscape:connector-curvature="0"
         style="fill:#ffffff;fill-opacity:0"
         sodipodi:nodetypes="ssssss"
         inkscape:export-xdpi="90"
         inkscape:export-ydpi="90" />
      <path
         id="path3049"
         d="m 34.37,129.5 c 5.04,-1.75 10.47,-0.81 15.69,-0.95 2.51,-0.17 4.22,1.97 5.94,3.46 7.29,7.36 14.69,14.62 21.95,22.02 3.73,3.3 3.97,9.81 0.45,13.34 -8.08,8.61 -15.8,17.6 -24.61,25.48 -2.29,2.44 -5.81,1.63 -8.78,1.79 -3.87,-0.11 -7.89,0.43 -11.59,-1.01 4.75,-5.66 10.23,-10.6 15.51,-15.74 5.44,-5.08 10.54,-10.52 15.93,-15.65 -0.32,-3.65 -3.52,-5.82 -5.84,-8.25 -8.21,-8.17 -16.38,-16.38 -24.65,-24.49 z"
         inkscape:connector-curvature="0"
         style="fill:#000000;fill-opacity:1;filter:url(#filter5842)" />
      <path
         id="path3053"
         d="m 98.63,188.65 c 4.92,-1.87 10.22,-1.36 15.37,-1.4 14.02,0.06 28.05,-0.07 42.08,0.05 3.8,-0.44 7.75,2.81 7.55,6.72 -0.2,2.6 0.95,6.24 -1.71,7.87 -2.57,1.91 -5.89,1.69 -8.91,1.75 -15.02,-0.07 -30.04,0 -45.05,-0.04 -3.56,0.11 -8.11,-1.02 -9.27,-4.85 -0.6,-3.34 -0.2,-6.75 -0.06,-10.1 z"
         inkscape:connector-curvature="0"
         style="fill:#404040;filter:url(#filter5926)" />
      <path
         id="path3055"
         d="m 0,216.25 c 2.32,5.19 5.52,10.08 9.9,13.77 5.79,5 13.49,7.43 21.08,7.46 61,-0.03 122.01,-0.01 183.02,-0.01 7.83,-0.08 15.98,0.77 23.42,-2.27 8.57,-3.19 14.86,-10.58 18.58,-18.74 V 256 H 0 Z"
         inkscape:connector-curvature="0"
         style="fill:#ffffff;fill-opacity:0" />
      <text
         xml:space="preserve"
         style="font-style:italic;font-variant:normal;font-weight:normal;font-stretch:normal;line-height:0%;font-family:Consolas;-inkscape-font-specification:'Consolas Italic';letter-spacing:-0.28px;word-spacing:0px;fill:#800000;fill-opacity:1;stroke:none;stroke-width:1px;stroke-linecap:butt;stroke-linejoin:miter;stroke-opacity:1;filter:url(#filter9016)"
         x="24.377169"
         y="59.648708"
         id="text3449"><tspan
           sodipodi:role="line"
           id="tspan3451"
           x="24.377169"
           y="59.648708"
           style="font-style:italic;font-variant:normal;font-weight:normal;font-stretch:normal;font-size:17px;line-height:1.25;font-family:Consolas;-inkscape-font-specification:'Consolas Italic';letter-spacing:-0.28px;fill:#800000"><tspan
             style="font-size:16px"
             id="tspan4764">VSDebug</tspan><tspan
             style="font-style:italic;font-variant:normal;font-weight:bold;font-stretch:normal;font-size:20px;font-family:Consolas;-inkscape-font-specification:'Consolas Bold Italic';fill:#009cff;fill-opacity:1"
             id="tspan287">Pro</tspan></tspan></text>
      <path
         style="fill:#000000;filter:url(#filter5731)"
         d="m 474.53711,396.97852 c -5.55846,-0.0895 -10.42625,4.23652 -10.7793,9.91796 -0.48366,4.33185 -0.98155,9.52808 -5.99219,10.8711 -6.03365,2.40043 -14.31902,8.08119 -19.90624,1.86719 -3.5751,-4.37399 -9.94506,-7.77074 -15.16407,-3.95704 -6.69811,3.73513 -11.01557,13.67698 -4.90429,19.88477 2.7331,3.40217 7.30333,7.11421 4.27343,11.86133 -2.27836,5.21945 -3.74617,11.90369 -8.61328,15.16797 -5.6671,2.2201 -15.54718,1.0519 -17.0332,9.0039 -1.58193,5.78709 -0.62914,14.85971 6.75391,15.73438 5.24092,1.5702 12.60188,1.01389 14.51171,7.38281 2.7661,6.246 8.26086,15.17986 1.2168,20.66992 -4.44731,3.52279 -6.80972,10.07438 -2.96484,14.92383 3.8652,6.37921 13.49747,10.37391 19.50586,4.41797 3.3033,-2.67833 7.05291,-7.16346 11.66406,-4.34961 5.03245,2.5947 11.97265,3.39952 15.26367,8.24609 1.64169,6.3324 1.48783,15.69133 9.37109,17.74219 7.00269,2.38504 16.73525,-1.37256 16.98829,-9.67383 0.44801,-4.50867 0.16341,-10.52756 5.86132,-11.74414 5.17812,-1.77406 10.55931,-6.33499 16.08789,-5.07812 5.12169,3.65096 11.08216,9.94275 17.99805,6.9082 6.91589,-3.03455 12.21249,-12.95367 7.6543,-18.1875 -4.55819,-5.23382 -8.73007,-8.43174 -5.50196,-14.29883 2.6527,-5.79938 3.89141,-15.16031 11.86133,-15.55273 6.4421,-0.44614 14.18137,-3.04708 13.87696,-10.77735 0.54756,-5.31741 -1.24019,-12.14415 -7.40625,-12.91601 -5.33929,-1.6717 -12.85456,-0.88005 -14.59766,-7.66016 -1.44651,-4.96681 -5.88293,-9.81393 -4.95508,-15.13672 3.0952,-5.45146 10.51294,-10.7555 7.26758,-17.92578 -2.34064,-7.15613 -11.86009,-13.8981 -18.6582,-8.04492 -3.86258,3.49989 -8.3739,8.49351 -14.10157,5.38086 -5.54245,-2.80698 -14.88583,-3.73575 -15.38867,-11.51367 -0.38964,-5.70197 -3.06153,-13.29815 -10.00781,-13.0586 -1.01915,-0.062 -2.04045,-0.0436 -3.06055,-0.0273 -0.37555,-0.0461 -0.75053,-0.0722 -1.12109,-0.0781 z m 3.11328,2.06054 c 1.98869,0.0318 3.9784,0.28011 5.39258,1.51563 3.57687,3.12497 2.91367,9.08867 4.70117,13.45117 1.1125,3.975 5.61211,5.09883 8.84961,6.79883 4.5125,1.75 9.22539,4.42539 14.21289,3.52539 5.2125,-1.775 8.71862,-9.09797 14.125,-8.3125 5.15798,0.74938 10.03798,6.26287 10.66211,11.4375 0.63753,5.2857 -5.65078,9.0375 -7.80078,13.9375 -1.6,3.1125 0.6375,6.38867 1.625,9.32617 2.0875,4.375 3.53867,9.26133 6.82617,12.92383 5.1125,2.6125 11.3375,2.01328 16.3125,4.98828 2.76249,4.3375 2.81211,10.925 -0.0254,15.25 -5.05,2.8 -11.3,2.14961 -16.3125,4.97461 -2.9375,3.15 -4.29922,7.40039 -6.01172,11.27539 -1.325,3.675 -3.20117,7.74961 -1.76367,11.66211 2,4.775 8.72156,8.08897 8.02539,13.1875 -0.70671,5.17566 -6.25464,10.06106 -11.4375,10.71289 -5.81172,0.73092 -9.73789,-6.70039 -15.40039,-8.46289 -4.9375,0.525 -9.37461,3.1 -13.91211,4.9375 -2.55,1.35 -5.66289,2.27422 -7.33789,4.76172 -2.2125,5 -0.28033,12.27667 -4.53711,15.65039 -3.65323,2.89537 -10.07321,3.2857 -13.9668,0.72265 -5.04702,-3.32232 -3.55742,-11.42304 -6.29492,-16.99804 -2.6,-2.6 -6.2375,-3.76133 -9.5,-5.29883 -3.7125,-1.45 -7.38906,-3.36328 -11.41406,-3.67578 -5.625,1.725 -9.50461,9.10237 -15.26172,8.375 -5.18514,-0.6551 -10.72652,-5.54683 -11.4375,-10.72461 -0.69915,-5.09164 6.01328,-8.4125 7.98828,-13.1875 1.6,-4.8875 -1.00117,-9.81289 -2.76367,-14.27539 -1.5875,-3.15 -2.72422,-6.89961 -5.63672,-9.09961 -5,-2.225 -10.80078,-1.92422 -15.67578,-4.51172 -2.8375,-4.1 -2.54883,-10.07578 -0.61133,-14.48828 4.7625,-4.7 13.23711,-2.30039 17.97461,-6.96289 3.45,-6.1 6.8125,-12.64961 8,-19.59961 -1.775,-5.65 -9.18355,-9.59076 -8.45117,-15.40039 0.65334,-5.18267 5.53795,-10.72548 10.71289,-11.4375 5.09145,-0.70054 8.4125,6.01328 13.1875,7.98828 4.225,1.475 8.59961,-0.55039 12.53711,-2.02539 3.5625,-1.6375 7.50117,-2.93672 10.32617,-5.76172 2.5125,-4.7375 1.14243,-11.46057 4.97461,-15.13867 1.78794,-1.71605 4.58672,-1.9934 7.15234,-2.0293 0.64141,-0.009 1.3039,-0.0223 1.9668,-0.0117 z m -0.95508,32.58008 c -0.61447,-0.003 -1.23003,0.0104 -1.84375,0.0391 -2.21921,0.17022 -4.45689,0.20771 -6.65234,0.59571 -2.21899,0.2424 -4.35529,0.91399 -6.49024,1.5332 -0.98588,0.29667 -1.90028,0.77808 -2.87304,1.11328 -1.28374,0.59605 -2.57765,1.17355 -3.79688,1.89649 -1.96001,1.04445 -3.80634,2.29216 -5.54492,3.67187 -1.15534,0.87611 -2.27187,1.80599 -3.29492,2.83398 -0.97533,0.80759 -1.74883,1.81992 -2.64063,2.71289 -1.36497,1.53033 -2.67215,3.11548 -3.80078,4.83008 -1.48947,2.17156 -2.77618,4.48121 -3.92383,6.84961 -0.6163,1.24847 -1.08419,2.55724 -1.54882,3.86719 -0.6523,1.82077 -1.16849,3.69197 -1.61719,5.57227 -0.44696,1.98637 -0.77393,3.99997 -0.87891,6.03515 -0.1532,1.65881 -0.17938,3.32655 -0.0605,4.98828 0.0382,1.448 0.28289,2.87825 0.41796,4.31836 0.24434,2.1574 0.80284,4.26504 1.39844,6.34766 0.7132,2.12301 1.47702,4.23152 2.47852,6.23828 1.37989,3.02764 3.27879,5.78175 5.27344,8.43164 1.81762,2.30188 3.88075,4.40177 6.05468,6.36719 2.32101,2.00286 4.86082,3.74773 7.51172,5.2832 2.72135,1.55039 5.59551,2.84704 8.59961,3.74414 1.33611,0.42104 2.70944,0.71012 4.06836,1.04492 2.25782,0.41857 4.53859,0.76063 6.83984,0.76563 2.40895,0.031 4.83205,0.10365 7.22461,-0.23438 1.07881,-0.11517 2.14961,-0.26964 3.20703,-0.51562 2.29994,-0.4462 4.55698,-1.10651 6.74415,-1.94531 1.39267,-0.48255 2.72871,-1.11909 4.04687,-1.77539 1.59216,-0.85629 3.17703,-1.72857 4.67969,-2.73633 1.23182,-0.7891 2.41442,-1.65848 3.55468,-2.57422 1.33858,-1.12057 2.61792,-2.31603 3.85547,-3.54688 1.09955,-1.12368 2.20768,-2.24155 3.17774,-3.48242 1.1341,-1.38551 2.12554,-2.88145 3.10937,-4.375 1.802,-2.82335 3.31673,-5.83922 4.41407,-9.00586 0.56637,-1.68756 1.03677,-3.40758 1.41406,-5.14648 0.36834,-1.91256 0.70284,-3.83664 0.77344,-5.78711 0.14855,-2.21871 0.21411,-4.44793 0.0215,-6.66602 -0.0712,-1.61058 -0.37669,-3.19764 -0.625,-4.78711 -0.4398,-2.19316 -1.00885,-4.36265 -1.80469,-6.45507 -0.96025,-2.82992 -2.331,-5.49756 -3.80078,-8.0918 -1.17497,-1.96654 -2.49621,-3.84126 -3.91601,-5.63867 -2.054,-2.58508 -4.40299,-4.92925 -6.92383,-7.0586 -1.8126,-1.46969 -3.7455,-2.79581 -5.79492,-3.91211 -1.86003,-0.9864 -3.73247,-1.98457 -5.75,-2.61523 -1.9465,-0.69874 -3.92561,-1.30438 -5.95118,-1.72852 -2.47073,-0.48537 -4.97574,-0.79744 -7.49023,-0.93554 -0.61308,-0.0425 -1.22732,-0.0634 -1.8418,-0.0664 z m -1.8125,1.96094 c 0.5939,10e-5 1.1911,0.0159 1.78907,0.0449 22.31421,-0.76335 41.80685,19.7033 42.04101,41.83594 1.17356,25.30685 -24.1956,47.53693 -49.17773,42.79687 -23.95443,-3.46842 -41.69055,-30.05533 -34.20313,-53.39843 4.83595,-17.54598 21.13985,-31.28249 39.55078,-31.2793 z m 0.4043,9.91601 c -0.46172,0.003 -0.92336,0.0147 -1.38477,0.0352 -18.844,0.2504 -34.07213,19.8172 -29.94531,38.16797 2.39185,15.50824 16.79725,28.48587 32.79492,27.38672 17.08793,0.2293 31.92709,-14.82147 32.45899,-31.69727 1.25166,-16.83723 -12.90532,-32.67844 -29.77344,-33.71484 -1.3797,-0.12086 -2.76524,-0.18691 -4.15039,-0.17774 z m -0.002,1.99414 c 1.33315,-0.0102 2.6688,0.0547 3.99414,0.17188 1.15598,0.0913 2.29386,0.29856 3.42578,0.54492 2.01972,0.35362 3.95738,1.03951 5.86914,1.76367 2.05799,0.89122 4.06572,1.92986 5.9043,3.22071 1.94883,1.26614 3.59669,2.92761 5.14257,4.64843 0.75754,0.79017 1.41863,1.65998 2.04688,2.55469 1.22354,1.74983 2.31342,3.60328 3.11523,5.58594 0.80663,1.98128 1.57563,4.0017 1.91797,6.12305 0.3595,1.61921 0.45954,3.27689 0.56055,4.92773 0.0177,2.01176 -0.13182,4.02764 -0.43164,6.01758 -0.20214,1.0316 -0.43711,2.05439 -0.72266,3.0664 -0.3686,1.31955 -0.89554,2.59237 -1.36133,3.88086 -0.58726,1.40562 -1.29718,2.76359 -2.10742,4.05469 -0.80009,1.39736 -1.76029,2.69276 -2.79297,3.92578 -1.24986,1.49219 -2.50126,3.0088 -4.05664,4.19727 -1.88641,1.6685 -4.08236,2.93739 -6.35156,4.00781 -2.49541,1.15369 -5.15875,1.91656 -7.85938,2.4082 -2.59746,0.41323 -5.24669,0.65269 -7.87304,0.39454 -1.0374,-0.0145 -2.05896,-0.18353 -3.08594,-0.30665 -1.71559,-0.2714 -3.42304,-0.66944 -5.05078,-1.28125 -1.54504,-0.4684 -3.00977,-1.16607 -4.41016,-1.96484 -1.53786,-0.77693 -2.88459,-1.85652 -4.24023,-2.90625 -1.73018,-1.48761 -3.31933,-3.1387 -4.69727,-4.95898 -1.17345,-1.4266 -2.14063,-3.00429 -2.98437,-4.64453 -0.85004,-1.66188 -1.61334,-3.37315 -2.20117,-5.14649 -0.58164,-1.76814 -0.97939,-3.58877 -1.29102,-5.42187 -0.20061,-1.72179 -0.3282,-3.45704 -0.3457,-5.19141 0.0996,-3.29671 0.57174,-6.61489 1.71679,-9.7207 0.44339,-1.18418 0.89444,-2.37067 1.52539,-3.47071 0.94951,-1.87173 2.17967,-3.57493 3.44532,-5.24218 0.71417,-0.86101 1.45431,-1.70311 2.24218,-2.49805 0.8744,-0.87937 1.79275,-1.72426 2.7793,-2.47656 2.16929,-1.71311 4.56272,-3.14846 7.13086,-4.17774 1.91685,-0.78512 3.94195,-1.24352 5.96484,-1.66015 1.24985,-0.1319 2.49053,-0.37433 3.75,-0.39063 0.44327,-0.0209 0.88765,-0.0322 1.33204,-0.0352 z m 1.23437,13.63868 c -1.56283,-0.0403 -3.14062,0.15234 -4.6875,0.61328 -6.0875,1.65 -11.16328,6.92539 -12.36328,13.15039 -2.25,9.675 5.67539,20.05 15.58789,20.375 9.90001,1.075 19.22461,-8.27461 18.16211,-18.16211 -0.26367,-8.71172 -8.25993,-15.75887 -16.69922,-15.97656 z m 0.62695,1.99609 c 11.77303,0.45728 19.1464,16.44317 10.25977,25.16016 -7.82285,9.88457 -25.16105,4.13331 -26.20117,-8.20899 -1.22228,-8.60931 6.17762,-16.87797 14.78906,-16.94531 0.38853,-0.0183 0.77257,-0.0206 1.15234,-0.006 z"
         id="path5069"
         transform="matrix(0.8,0,0,0.8,-192,-300.17546)"
         inkscape:connector-curvature="0" />
      <path
         style="fill:#000000;filter:url(#filter5119)"
         d="m 100.94661,16.96913 c 3.57687,3.124976 2.91367,9.08867 4.70117,13.45117 1.1125,3.975 5.61211,5.09883 8.84961,6.79883 4.5125,1.75 9.22539,4.42539 14.21289,3.52539 5.2125,-1.775 8.71862,-9.09797 14.125,-8.3125 5.15798,0.749381 10.03798,6.262871 10.66211,11.4375 0.63753,5.285705 -5.65078,9.0375 -7.80078,13.9375 -1.6,3.1125 0.6375,6.38867 1.625,9.32617 2.0875,4.375 3.53867,9.26133 6.82617,12.92383 5.1125,2.6125 11.3375,2.01328 16.3125,4.98828 2.76249,4.3375 2.8121,10.925 -0.0254,15.25 -5.05,2.8 -11.3,2.14961 -16.3125,4.97461 -2.9375,3.15 -4.29922,7.40039 -6.01172,11.27539 -1.325,3.675 -3.20117,7.74961 -1.76367,11.66211 2,4.775 8.72156,8.08897 8.02539,13.1875 -0.70671,5.17566 -6.25464,10.06106 -11.4375,10.71289 -5.81172,0.73092 -9.73789,-6.70039 -15.40039,-8.46289 -4.9375,0.525 -9.37461,3.1 -13.91211,4.9375 -2.55,1.35 -5.66289,2.27422 -7.33789,4.76172 -2.2125,5 -0.28033,12.27667 -4.53711,15.65039 -3.653228,2.89537 -10.072094,3.28626 -13.965685,0.72321 -5.047025,-3.32232 -3.55854,-11.4236 -6.29604,-16.9986 -2.6,-2.6 -6.2375,-3.76133 -9.5,-5.29883 -3.7125,-1.45 -7.38906,-3.36328 -11.41406,-3.67578 -5.625,1.725 -9.504607,9.10237 -15.26172,8.375 -5.185142,-0.6551 -10.726522,-5.54683 -11.4375,-10.72461 -0.699151,-5.09164 6.01328,-8.4125 7.98828,-13.1875 1.6,-4.8875 -1.00117,-9.81289 -2.76367,-14.27539 -1.5875,-3.15 -2.72422,-6.89961 -5.63672,-9.09961 -5,-2.225 -10.80078,-1.92422 -15.67578,-4.51172 -2.8375,-4.1 -2.54883,-10.07578 -0.61133,-14.48828 4.7625,-4.7 13.23711,-2.30039 17.97461,-6.96289 3.45,-6.1 6.8125,-12.64961 8,-19.59961 -1.775,-5.65 -9.183551,-9.590754 -8.45117,-15.40039 0.653344,-5.182671 5.537955,-10.725474 10.71289,-11.4375 5.091452,-0.70054 8.4125,6.01328 13.1875,7.98828 4.225,1.475 8.59961,-0.55039 12.53711,-2.02539 3.5625,-1.6375 7.50117,-2.93672 10.32617,-5.76172 2.5125,-4.7375 1.142429,-11.460573 4.97461,-15.13867 1.78794,-1.71605 4.58672,-1.9934 7.15234,-2.0293 2.56564,-0.03593 5.473823,-0.143445 7.359395,1.50391 z m -6.347735,31.06441 c -0.61447,-0.003 -1.23003,0.0104 -1.84375,0.0391 -2.21921,0.17022 -4.45689,0.2077 -6.65234,0.5957 -2.21899,0.2424 -4.35529,0.91399 -6.49024,1.5332 -0.98588,0.29667 -1.90028,0.77808 -2.87304,1.11328 -1.28374,0.59605 -2.57765,1.17356 -3.79688,1.89649 -1.96001,1.04446 -3.80634,2.29216 -5.54492,3.67187 -1.15534,0.87611 -2.27187,1.806 -3.29492,2.83399 -0.97533,0.80759 -1.74883,1.81992 -2.64063,2.71289 -1.36497,1.53033 -2.67215,3.11548 -3.80078,4.83008 -1.48947,2.17156 -2.77618,4.4812 -3.92383,6.8496 -0.6163,1.24847 -1.08419,2.55724 -1.54882,3.86719 -0.6523,1.82077 -1.16849,3.69197 -1.61719,5.57227 -0.44696,1.98637 -0.77393,3.99997 -0.87891,6.03515 -0.1532,1.65881 -0.17934,3.32656 -0.0605,4.98829 0.0382,1.448 0.28289,2.87824 0.41796,4.31835 0.24434,2.1574 0.80284,4.26504 1.39844,6.34766 0.7132,2.12301 1.47702,4.23152 2.47852,6.23828 1.37989,3.02764 3.27878,5.78175 5.27343,8.43164 1.81762,2.30188 3.88076,4.40177 6.05469,6.36719 2.32101,2.00286 4.86082,3.74773 7.51172,5.2832 2.72135,1.55039 5.59551,2.84704 8.59961,3.74414 1.33611,0.42104 2.70944,0.71013 4.06836,1.04493 2.25782,0.41857 4.53859,0.76062 6.83984,0.76562 2.40895,0.031 4.83205,0.10366 7.22461,-0.23437 1.078805,-0.11517 2.149615,-0.26965 3.207035,-0.51563 2.29994,-0.4462 4.55697,-1.10651 6.74414,-1.94531 1.39267,-0.48255 2.72872,-1.11909 4.04688,-1.77539 1.59216,-0.85629 3.17703,-1.72857 4.67969,-2.73633 1.23182,-0.7891 2.41442,-1.65848 3.55469,-2.57422 1.33857,-1.12057 2.61791,-2.31602 3.85546,-3.54687 1.09955,-1.12368 2.20768,-2.24156 3.17774,-3.48243 1.1341,-1.38551 2.12554,-2.88145 3.10937,-4.375 1.802,-2.82335 3.31673,-5.83922 4.41407,-9.00586 0.56637,-1.68756 1.03677,-3.40758 1.41406,-5.14648 0.36834,-1.91256 0.70284,-3.83664 0.77344,-5.78711 0.14855,-2.21871 0.21413,-4.44792 0.0215,-6.66601 -0.0712,-1.61058 -0.37669,-3.19764 -0.625,-4.78711 -0.4398,-2.19316 -1.00885,-4.36266 -1.80469,-6.45508 -0.96025,-2.82992 -2.331,-5.49756 -3.80078,-8.0918 -1.17497,-1.96654 -2.49621,-3.84126 -3.91601,-5.63867 -2.054,-2.58508 -4.40299,-4.92925 -6.92383,-7.0586 -1.8126,-1.46969 -3.7455,-2.7958 -5.79492,-3.9121 -1.86003,-0.9864 -3.73247,-1.98458 -5.75,-2.61524 -1.9465,-0.69874 -3.92561,-1.30437 -5.95118,-1.72851 -2.47073,-0.48537 -4.975745,-0.79745 -7.490235,-0.93555 -0.61308,-0.0425 -1.22732,-0.0634 -1.8418,-0.0664 z m -1.41009,13.87109 c 1.33315,-0.01017 2.6688,0.05468 3.99414,0.17187 1.15598,0.09129 2.29387,0.29856 3.425785,0.54492 2.01972,0.35362 3.95738,1.03952 5.86914,1.76368 2.05799,0.89122 4.06572,1.92985 5.9043,3.2207 1.94883,1.26614 3.59669,2.92762 5.14257,4.64844 0.75754,0.79017 1.41863,1.65997 2.04688,2.55468 1.22354,1.74983 2.31342,3.60328 3.11523,5.58594 0.80663,1.98128 1.57563,4.0017 1.91797,6.12305 0.3595,1.61921 0.45954,3.27689 0.56055,4.92773 0.0177,2.01176 -0.13182,4.02764 -0.43164,6.01758 -0.20214,1.0316 -0.43711,2.0544 -0.72266,3.06641 -0.3686,1.31955 -0.89554,2.59237 -1.36133,3.88086 -0.58726,1.40562 -1.29718,2.76358 -2.10742,4.05468 -0.80009,1.39736 -1.76029,2.69276 -2.79297,3.92578 -1.24986,1.49219 -2.50126,3.0088 -4.05664,4.19727 -1.88641,1.6685 -4.08236,2.93739 -6.35156,4.00781 -2.49541,1.15369 -5.15875,1.91657 -7.859375,2.40821 -2.59746,0.41323 -5.2467,0.65269 -7.87305,0.39453 -1.0374,-0.0145 -2.05896,-0.18352 -3.08594,-0.30664 -1.71559,-0.2714 -3.42304,-0.66944 -5.05078,-1.28125 -1.54504,-0.4684 -3.00977,-1.16608 -4.41016,-1.96485 -1.53786,-0.77693 -2.88459,-1.85652 -4.24023,-2.90625 -1.73018,-1.48761 -3.31933,-3.1387 -4.69727,-4.95898 -1.17345,-1.4266 -2.14063,-3.00428 -2.98437,-4.64453 -0.85004,-1.66188 -1.61334,-3.37315 -2.20117,-5.14649 -0.58164,-1.76814 -0.97939,-3.58877 -1.29102,-5.42187 -0.20061,-1.72179 -0.3282,-3.45704 -0.3457,-5.19141 0.0996,-3.29671 0.57174,-6.61489 1.71679,-9.7207 0.44339,-1.18418 0.89445,-2.37066 1.5254,-3.4707 0.9495,-1.87173 2.17966,-3.57494 3.44531,-5.24219 0.71417,-0.86101 1.45431,-1.70311 2.24219,-2.49805 0.8744,-0.87937 1.79274,-1.72426 2.77929,-2.47656 2.16929,-1.71311 4.56272,-3.14846 7.13086,-4.17774 1.91685,-0.78512 3.94196,-1.24352 5.96485,-1.66015 1.24985,-0.1319 2.49052,-0.37433 3.75,-0.39063 0.44327,-0.0209 0.88764,-0.0321 1.33203,-0.0351 z m -3.45313,14.252 c -6.0875,1.65 -11.16328,6.92539 -12.36328,13.15039 -2.25,9.675 5.67539,20.05 15.58789,20.375 9.900005,1.075 19.224615,-8.27461 18.162115,-18.16211 -0.26367,-8.71172 -8.25994,-15.75887 -16.699225,-15.97656 -1.56283,-0.04032 -3.14062,0.15234 -4.6875,0.61328 z"
         id="path5305"
         inkscape:connector-curvature="0"
         sodipodi:nodetypes="acccaaccccccccaacccaacccaacccccccaacccasaccccccccccccccccccccccccccccccccccccccccccccccccsccccccccccccccccccccccccccccccccccccscsccsc"
         transform="matrix(0.8,0,0,0.8,113.67645,6.6932829)" />
      <circle
         style="opacity:1;fill:#000000;fill-opacity:0.89411765;filter:url(#filter5568)"
         id="path5553"
         cx="188.97107"
         cy="80.922348"
         r="4.8571429" />
      <path
         style="opacity:1;fill:#0084d4;fill-opacity:1;filter:url(#filter5824)"
         d="m 93.644531,17.464844 c -5.14815,-0.914773 -8.532421,3.764056 -8.375543,8.532861 -0.16502,5.166138 -2.727537,10.037028 -7.841254,11.769873 -7.021076,3.147102 -16.74497,8.590055 -23.503906,1.980469 -3.065832,-3.152422 -7.632343,-7.677521 -12,-3.763672 -4.735276,3.037484 -7.439205,10.25736 -2.378906,14.394531 3.229604,3.643726 7.321523,8.194755 4.634766,13.332032 -2.26576,6.302797 -4.494244,13.379797 -9.423829,18.007812 -4.866222,3.611664 -12.922645,1.132032 -16.326171,6.453125 -1.585149,4.57759 -1.267305,12.580605 5.554687,12.169925 5.756211,0.93217 12.766135,2.04478 14.900391,8.41797 3.273667,7.16522 9.013885,17.03404 2.353515,24.0625 -3.422645,3.09858 -7.762533,8.0751 -3.550781,12.42187 3.098807,4.48341 10.06083,6.98641 14.050781,2.04688 3.689731,-3.51315 8.626267,-7.26018 13.869141,-4.5254 6.078535,2.80195 13.837848,4.14069 17.976562,9.73243 2.741069,5.54473 0.481884,15.17864 8.324219,16.72461 5.562985,1.45142 11.857907,-2.53134 10.996097,-8.71289 -0.0185,-4.98549 1.596,-10.58518 6.85937,-12.28907 6.28897,-2.36758 12.7837,-7.45043 19.66797,-5.99023 5.6283,2.30655 10.03204,10.95187 16.85742,6.67187 5.08524,-2.33483 8.86018,-9.79455 2.89351,-13.64827 -4.63983,-3.7989 -6.91577,-10.16001 -4.24898,-15.81852 2.85523,-6.84742 4.88913,-16.92005 13.73829,-17.95899 4.23471,-1.33221 11.55198,-0.4509 11.70312,-6.615232 0.81057,-4.452082 -0.61147,-10.352285 -6.32812,-10.05664 -5.74689,-0.948012 -12.66835,-1.957725 -14.73829,-8.390626 -1.98506,-6.032074 -7.28407,-12.0385 -5.74804,-18.708984 1.85074,-5.828062 10.81136,-10.052122 6.92383,-16.845703 -2.15853,-5.064472 -9.33457,-9.115144 -13.44336,-3.748047 -3.76849,4.359031 -9.56992,7.449962 -15.31641,5.048828 -6.0073,-2.782553 -14.33735,-3.922187 -17.69922,-10.314453 -2.49303,-4.716621 -0.49405,-13.872874 -7.636718,-14.361328 -0.913797,-0.05396 -1.829605,-0.03429 -2.744141,-0.01953 z m 0.96875,28.568359 C 112.80178,45.631961 129.67177,57.608012 136.66406,74.164062 145.44372,92.79265 139.16382,116.41762 122.9668,128.9043 106.40337,143.0159 79.92762,142.41638 63.904297,127.75 48.16093,114.58649 42.776479,90.636575 52.394531,72.310547 60.011651,56.345055 76.692919,45.232907 94.613281,46.033203 Z m -2.703125,17.90625 C 74.826978,64.17374 61.372297,82.619251 66.138672,99.050781 69.039121,113.34416 83.663221,124.0788 98.25,121.16602 117.60643,119.31678 129.59868,95.025023 119.5332,78.474609 114.14283,68.556616 102.94311,63.276641 91.910156,63.939453 Z m 1.902344,9.599609 c 12.85837,-0.488967 23.33384,13.91883 18.1543,25.919922 -4.15556,11.971876 -20.945982,16.488326 -30.240238,7.656246 -9.508303,-7.532143 -8.58244,-23.579154 1.558594,-30.08398 3.06173,-2.15211 6.776069,-3.435903 10.527344,-3.492188 z"
         id="path6871"
         inkscape:connector-curvature="0"
         transform="matrix(0.8,0,0,0.8,113.67645,6.6932829)"
         inkscape:export-xdpi="51.170315"
         inkscape:export-ydpi="51.170315" />
    </g>
    <ellipse
       style="opacity:0;fill:#e6e6e6;fill-opacity:1"
       id="path9439"
       cx="538.92853"
       cy="645.21942"
       rx="41.785713"
       ry="41.42857" />
    <path
       transform="matrix(1.25,0,0,1.25,228.99063,338.75964)"
       id="path2997-0"
       d="m 7.36,32.24 c 5.87,-7.88 16.03,-11.23 25.59,-10.83 35.78,0.24 71.58,-0.31 107.36,0.3 -3.28,4.48 -6.63,9.13 -11.33,12.24 -3.52,2.31 -7.91,2.22 -11.96,2.3 C 93.35,35.96 69.67,36.23 46,36.1 39.25,36.03 32.18,35.04 25.73,37.63 c -2.17,1.88 -4.21,3.93 -6.1,6.1 -2.45,6.12 -1.7,12.84 -1.56,19.27 0.36,16.66 0.25,33.33 0.26,50 -0.08,31.57 0.18,63.15 -0.17,94.72 -0.07,3.86 1.31,8.16 5.04,9.93 6.17,2.89 13.22,1.67 19.81,1.86 60.34,-0.07 120.69,-0.07 181.04,0 4.17,-0.2 9.27,-0.69 11.7,-4.6 2.47,-4.52 2.17,-9.9 2.34,-14.89 -0.31,-14.68 -0.02,-29.35 -0.27,-44.03 0,-5.23 0.01,-11.19 4.01,-15.14 2.85,-3.75 7.35,-5.46 11.8,-6.41 1.26,9.81 0.69,19.7 0.74,29.56 0.04,10.66 -0.02,21.33 0.08,32 0.04,7.17 -0.1,14.63 -3.05,21.31 -3.25,7.54 -9.59,14.07 -17.7,16.14 -6.77,1.66 -13.8,1.04 -20.7,1.12 -55.33,-0.05 -110.67,0 -166,-0.02 C 40.39,234.5 33.76,234.87 27.17,234.3 17.63,233.51 8.57,227.35 4.7,218.55 1.98,211.72 2.47,204.21 2.38,197 2.57,172.68 2.04,148.34 2.82,124.02 2.9,99.68 2.8,75.34 2.83,51.01 2.95,44.57 3.2,37.54 7.36,32.24 Z"
       inkscape:connector-curvature="0"
       style="opacity:0.9;fill:#404040;filter:url(#filter5974-0)" />
  </g>
</svg>
